<svg width="358" height="199" viewBox="0 0 358 199" fill="none" xmlns="http://www.w3.org/2000/svg">
<path d="M64.5 21.31C65.6046 21.31 66.5 20.4146 66.5 19.31C66.5 18.2054 65.6046 17.31 64.5 17.31C63.3954 17.31 62.5 18.2054 62.5 19.31C62.5 20.4146 63.3954 21.31 64.5 21.31Z" fill="#F2F2F2"/>
<path d="M2.5 76.31C3.60457 76.31 4.5 75.4146 4.5 74.31C4.5 73.2054 3.60457 72.31 2.5 72.31C1.39543 72.31 0.5 73.2054 0.5 74.31C0.5 75.4146 1.39543 76.31 2.5 76.31Z" fill="#F2F2F2"/>
<path d="M39.5 43.31C40.0523 43.31 40.5 42.8623 40.5 42.31C40.5 41.7577 40.0523 41.31 39.5 41.31C38.9477 41.31 38.5 41.7577 38.5 42.31C38.5 42.8623 38.9477 43.31 39.5 43.31Z" fill="#F2F2F2"/>
<path d="M142.5 131.31C143.052 131.31 143.5 130.862 143.5 130.31C143.5 129.758 143.052 129.31 142.5 129.31C141.948 129.31 141.5 129.758 141.5 130.31C141.5 130.862 141.948 131.31 142.5 131.31Z" fill="#F2F2F2"/>
<path d="M249.5 115.31C250.052 115.31 250.5 114.862 250.5 114.31C250.5 113.758 250.052 113.31 249.5 113.31C248.948 113.31 248.5 113.758 248.5 114.31C248.5 114.862 248.948 115.31 249.5 115.31Z" fill="#F2F2F2"/>
<path d="M233.5 198.31C234.052 198.31 234.5 197.862 234.5 197.31C234.5 196.758 234.052 196.31 233.5 196.31C232.948 196.31 232.5 196.758 232.5 197.31C232.5 197.862 232.948 198.31 233.5 198.31Z" fill="#F2F2F2"/>
<path d="M207.5 13.31C208.052 13.31 208.5 12.8623 208.5 12.31C208.5 11.7577 208.052 11.31 207.5 11.31C206.948 11.31 206.5 11.7577 206.5 12.31C206.5 12.8623 206.948 13.31 207.5 13.31Z" fill="#F2F2F2"/>
<path d="M184.5 74.31C185.052 74.31 185.5 73.8623 185.5 73.31C185.5 72.7577 185.052 72.31 184.5 72.31C183.948 72.31 183.5 72.7577 183.5 73.31C183.5 73.8623 183.948 74.31 184.5 74.31Z" fill="#F2F2F2"/>
<path d="M19.5 121.31C20.0523 121.31 20.5 120.862 20.5 120.31C20.5 119.758 20.0523 119.31 19.5 119.31C18.9477 119.31 18.5 119.758 18.5 120.31C18.5 120.862 18.9477 121.31 19.5 121.31Z" fill="#F2F2F2"/>
<path d="M49.5 181.31C50.0523 181.31 50.5 180.862 50.5 180.31C50.5 179.758 50.0523 179.31 49.5 179.31C48.9477 179.31 48.5 179.758 48.5 180.31C48.5 180.862 48.9477 181.31 49.5 181.31Z" fill="#F2F2F2"/>
<path d="M115.5 98.31C116.052 98.31 116.5 97.8623 116.5 97.31C116.5 96.7577 116.052 96.31 115.5 96.31C114.948 96.31 114.5 96.7577 114.5 97.31C114.5 97.8623 114.948 98.31 115.5 98.31Z" fill="#F2F2F2"/>
<path d="M167.5 179.31C168.052 179.31 168.5 178.862 168.5 178.31C168.5 177.758 168.052 177.31 167.5 177.31C166.948 177.31 166.5 177.758 166.5 178.31C166.5 178.862 166.948 179.31 167.5 179.31Z" fill="#F2F2F2"/>
<path d="M283.5 44.31C284.052 44.31 284.5 43.8623 284.5 43.31C284.5 42.7577 284.052 42.31 283.5 42.31C282.948 42.31 282.5 42.7577 282.5 43.31C282.5 43.8623 282.948 44.31 283.5 44.31Z" fill="#F2F2F2"/>
<path opacity="0.1" d="M357.5 0.479996V23.25L88.5 80.31L357.5 0.479996Z" fill="#F2F2F2"/>
<path opacity="0.1" d="M211.5 97.31L148.5 127.31L211.5 100.31V97.31Z" fill="#F2F2F2"/>
<path opacity="0.1" d="M357.5 114.6L311.5 134.31L357.5 112.41V114.6Z" fill="#F2F2F2"/>
</svg>
