<svg width="48" height="48" viewBox="0 0 48 48" fill="none" xmlns="http://www.w3.org/2000/svg">
<g filter="url(#filter0_i)">
<path d="M38 15.5781C38 22.5248 24 38 24 38C24 38 10 22.5248 10 15.5781C10 12.2422 11.475 9.0429 14.1005 6.68405C16.726 4.32519 20.287 3 24 3C27.713 3 31.274 4.32519 33.8995 6.68405C36.525 9.0429 38 12.2422 38 15.5781Z" fill="#6C63FF"/>
</g>
<path d="M30 16C30 17.1867 29.6481 18.3467 28.9888 19.3334C28.3295 20.3201 27.3925 21.0891 26.2961 21.5433C25.1997 21.9974 23.9933 22.1162 22.8295 21.8847C21.6656 21.6532 20.5965 21.0818 19.7574 20.2426C18.9182 19.4035 18.3468 18.3344 18.1153 17.1705C17.8838 16.0067 18.0026 14.8003 18.4567 13.7039C18.9109 12.6075 19.6799 11.6705 20.6666 11.0112C21.6533 10.3519 22.8133 10 24 10C24.788 9.99964 25.5684 10.1546 26.2965 10.456C27.0246 10.7574 27.6862 11.1993 28.2435 11.7565C28.8007 12.3138 29.2426 12.9754 29.544 13.7035C29.8454 14.4316 30.0004 15.212 30 16Z" fill="white"/>
<g style="mix-blend-mode:hard-light" opacity="0.5" filter="url(#filter1_i)">
<path d="M23.5 46C25.9853 46 28 44.6569 28 43C28 41.3431 25.9853 40 23.5 40C21.0147 40 19 41.3431 19 43C19 44.6569 21.0147 46 23.5 46Z" fill="#6C63FF"/>
</g>
<defs>
<filter id="filter0_i" x="10" y="3" width="30" height="41" filterUnits="userSpaceOnUse" color-interpolation-filters="sRGB">
<feFlood flood-opacity="0" result="BackgroundImageFix"/>
<feBlend mode="normal" in="SourceGraphic" in2="BackgroundImageFix" result="shape"/>
<feColorMatrix in="SourceAlpha" type="matrix" values="0 0 0 0 0 0 0 0 0 0 0 0 0 0 0 0 0 0 127 0" result="hardAlpha"/>
<feOffset dx="2" dy="6"/>
<feGaussianBlur stdDeviation="10"/>
<feComposite in2="hardAlpha" operator="arithmetic" k2="-1" k3="1"/>
<feColorMatrix type="matrix" values="0 0 0 0 0 0 0 0 0 0 0 0 0 0 0 0 0 0 0.25 0"/>
<feBlend mode="normal" in2="shape" result="effect1_innerShadow"/>
</filter>
<filter id="filter1_i" x="19" y="40" width="14" height="10" filterUnits="userSpaceOnUse" color-interpolation-filters="sRGB">
<feFlood flood-opacity="0" result="BackgroundImageFix"/>
<feBlend mode="normal" in="SourceGraphic" in2="BackgroundImageFix" result="shape"/>
<feColorMatrix in="SourceAlpha" type="matrix" values="0 0 0 0 0 0 0 0 0 0 0 0 0 0 0 0 0 0 127 0" result="hardAlpha"/>
<feOffset dx="5" dy="4"/>
<feGaussianBlur stdDeviation="3"/>
<feComposite in2="hardAlpha" operator="arithmetic" k2="-1" k3="1"/>
<feColorMatrix type="matrix" values="0 0 0 0 0 0 0 0 0 0 0 0 0 0 0 0 0 0 0.25 0"/>
<feBlend mode="normal" in2="shape" result="effect1_innerShadow"/>
</filter>
</defs>
</svg>
