<svg width="48" height="48" viewBox="0 0 48 48" fill="none" xmlns="http://www.w3.org/2000/svg">
<g filter="url(#filter0_i)">
<path d="M41.701 14.1895L32.3843 24.0894C32.3679 24.1058 32.3549 24.1255 32.346 24.1473C32.3371 24.1691 32.3325 24.1925 32.3325 24.2162C32.3325 24.2399 32.3371 24.2633 32.346 24.2851C32.3549 24.3069 32.3679 24.3266 32.3843 24.343L38.9213 31.603C39.0776 31.7676 39.184 31.9767 39.227 32.2042C39.27 32.4316 39.2477 32.6673 39.1629 32.8816C39.0781 33.0959 38.9346 33.2792 38.7504 33.4086C38.5662 33.538 38.3495 33.6077 38.1275 33.609C37.8287 33.6083 37.5423 33.4845 37.3306 33.2644L30.8279 26.0304C30.7947 25.9962 30.75 25.9771 30.7034 25.9771C30.6568 25.9771 30.6121 25.9962 30.5789 26.0304L28.9944 27.7015C28.3457 28.3944 27.571 28.9449 26.7157 29.3207C25.8604 29.6964 24.9418 29.8898 24.0139 29.8896C23.0685 29.885 22.1334 29.6837 21.2633 29.2974C20.3932 28.9111 19.6055 28.3476 18.9463 27.6397L17.4241 26.0141C17.3909 25.98 17.3461 25.9608 17.2996 25.9608C17.253 25.9608 17.2082 25.98 17.1751 26.0141L10.6879 33.2318C10.5835 33.3411 10.4596 33.4277 10.3231 33.4868C10.1866 33.5459 10.0403 33.5764 9.89259 33.5764C9.74485 33.5764 9.59856 33.5459 9.46209 33.4868C9.32562 33.4277 9.20164 33.3411 9.09727 33.2318C8.99233 33.123 8.90903 32.9936 8.8522 32.8511C8.79536 32.7085 8.76611 32.5556 8.76611 32.4012C8.76611 32.2467 8.79536 32.0938 8.8522 31.9512C8.90903 31.8087 8.99233 31.6793 9.09727 31.5705L15.6093 24.3268C15.6382 24.2914 15.6541 24.2464 15.6541 24.1999C15.6541 24.1535 15.6382 24.1085 15.6093 24.0732L6.29261 14.1732C6.26866 14.148 6.23809 14.1309 6.20479 14.1239C6.17149 14.117 6.13697 14.1205 6.1056 14.1341C6.07423 14.1477 6.04744 14.1707 6.02863 14.2003C6.00983 14.2298 5.99987 14.2645 6 14.3V34.1097C6.00246 34.8755 6.29481 35.6091 6.81324 36.1506C7.33168 36.6921 8.03413 36.9974 8.76731 37H39.2325C39.9657 36.9974 40.6682 36.6921 41.1866 36.1506C41.705 35.6091 41.9974 34.8755 41.9998 34.1097V14.3163C42.0014 14.2794 41.992 14.2429 41.9729 14.2119C41.9538 14.1808 41.926 14.1567 41.8932 14.1428C41.8605 14.1289 41.8244 14.1259 41.79 14.1343C41.7556 14.1426 41.7245 14.1619 41.701 14.1895V14.1895Z" fill="#6C63FF"/>
<path d="M24.0046 27.539C24.6362 27.5454 25.2625 27.4192 25.8464 27.1679C26.4304 26.9166 26.96 26.5452 27.4038 26.0759L40.9726 11.6502C40.491 11.2335 39.886 11.0038 39.2606 11H8.77358C8.14785 11.0021 7.54241 11.2321 7.06152 11.6502L20.6334 26.0759C21.0733 26.5426 21.5983 26.9125 22.1773 27.1637C22.7563 27.415 23.3776 27.5426 24.0046 27.539V27.539Z" fill="#6C63FF"/>
</g>
<defs>
<filter id="filter0_i" x="0" y="0" width="48" height="52" filterUnits="userSpaceOnUse" color-interpolation-filters="sRGB">
<feFlood flood-opacity="0" result="BackgroundImageFix"/>
<feBlend mode="normal" in="SourceGraphic" in2="BackgroundImageFix" result="shape"/>
<feColorMatrix in="SourceAlpha" type="matrix" values="0 0 0 0 0 0 0 0 0 0 0 0 0 0 0 0 0 0 127 0" result="hardAlpha"/>
<feOffset dy="4"/>
<feGaussianBlur stdDeviation="5"/>
<feComposite in2="hardAlpha" operator="arithmetic" k2="-1" k3="1"/>
<feColorMatrix type="matrix" values="0 0 0 0 0 0 0 0 0 0 0 0 0 0 0 0 0 0 0.25 0"/>
<feBlend mode="normal" in2="shape" result="effect1_innerShadow"/>
</filter>
</defs>
</svg>
